Coordinates
version=1
nRows=54
nColumns=12
inDegrees=yes

Units are S.I. units (second, meters, Newtons, ...)
Angles are in degrees

endheader
time	SC_y	SC_z	SC_x	AC_y	AC_z	AC_x	GH_y	GH_z	GH_yy	EL_x	PS_y
       0.0              -16.98          12.03          57.17          63.26          5.643         -11.49         -7.231          19.32          -61.6          17.35          157.6
   0.02332              -16.98          12.03          57.17          63.27          5.643         -11.49         -7.231          19.32         -61.59          17.35          157.5
   0.04663              -16.99          12.03          57.17          63.27          5.644         -11.49         -7.231          19.32         -61.57          17.35          157.5
   0.06995              -16.99          12.04          57.16          63.27          5.644         -11.49         -7.231          19.33         -61.56          17.35          157.5
   0.09327               -17.0          12.04          57.16          63.27          5.645         -11.49         -7.231          19.33         -61.54          17.35          157.5
    0.1166              -17.01          12.04          57.16          63.27          5.646         -11.49         -7.231          19.34         -61.52          17.35          157.5
    0.1399              -17.02          12.05          57.16          63.27          5.647         -11.49         -7.231          19.34          -61.5          17.36          157.5
    0.1632              -17.03          12.05          57.15          63.27          5.648         -11.49         -7.232          19.35         -61.48          17.36          157.5
    0.1865              -17.04          12.05          57.15          63.27          5.648         -11.49         -7.232          19.35         -61.46          17.36          157.5
    0.2099              -17.05          12.06          57.15          63.27          5.649         -11.49         -7.232          19.36         -61.43          17.36          157.5
    0.2332              -17.06          12.06          57.15          63.27          5.651         -11.49         -7.232          19.36         -61.41          17.36          157.5
    0.2565              -17.07          12.07          57.14          63.27          5.652         -11.49         -7.232          19.37         -61.38          17.36          157.5
    0.2798              -17.08          12.07          57.14          63.27          5.653         -11.49         -7.232          19.38         -61.35          17.37          157.5
    0.3031              -17.09          12.08          57.14          63.27          5.654         -11.49         -7.232          19.38         -61.32          17.37          157.5
    0.3264              -17.11          12.08          57.13          63.27          5.656         -11.48         -7.232          19.39         -61.28          17.37          157.5
    0.3498              -17.12          12.09          57.13          63.27          5.657         -11.48         -7.232           19.4         -61.24          17.37          157.5
    0.3731              -17.14           12.1          57.12          63.27          5.659         -11.48         -7.232          19.41          -61.2          17.37          157.5
    0.3964              -17.16           12.1          57.12          63.28          5.661         -11.48         -7.233          19.42         -61.16          17.38          157.5
    0.4197              -17.18          12.11          57.11          63.28          5.663         -11.48         -7.233          19.43         -61.11          17.38          157.5
     0.443               -17.2          12.12          57.11          63.28          5.665         -11.48         -7.233          19.45         -61.05          17.38          157.4
    0.4663              -17.23          12.13           57.1          63.28          5.668         -11.48         -7.233          19.46         -60.99          17.39          157.4
    0.4897              -17.25          12.14          57.09          63.28           5.67         -11.47         -7.233          19.47         -60.93          17.39          157.4
     0.513              -17.28          12.15          57.08          63.28          5.673         -11.47         -7.234          19.49         -60.85           17.4          157.4
    0.5363              -17.32          12.16          57.07          63.29          5.676         -11.47         -7.234          19.51         -60.77           17.4          157.4
    0.5596              -17.35          12.18          57.06          63.29           5.68         -11.47         -7.234          19.53         -60.69          17.41          157.4
    0.5829              -17.39           12.2          57.05          63.29          5.684         -11.46         -7.234          19.55         -60.59          17.41          157.4
    0.6062              -17.44          12.21          57.04          63.29          5.689         -11.46         -7.235          19.58         -60.48          17.42          157.3
    0.6296              -17.49          12.23          57.03           63.3          5.694         -11.46         -7.235          19.61         -60.35          17.43          157.3
    0.6529              -17.55          12.26          57.01           63.3            5.7         -11.45         -7.236          19.64         -60.21          17.44          157.3
    0.6762              -17.61          12.28          56.99           63.3          5.706         -11.45         -7.236          19.68         -60.05          17.45          157.2
    0.6995              -17.69          12.31          56.97          63.31          5.714         -11.44         -7.237          19.72         -59.86          17.46          157.2
    0.7228              -17.77          12.35          56.95          63.31          5.722         -11.44         -7.237          19.77         -59.65          17.47          157.2
    0.7461              -17.87          12.39          56.92          63.32          5.732         -11.43         -7.238          19.83         -59.41          17.49          157.1
    0.7695              -17.99          12.43          56.89          63.33          5.744         -11.42         -7.239          19.89         -59.13           17.5          157.1
    0.7928              -18.13          12.49          56.85          63.33          5.757         -11.41          -7.24          19.97          -58.8          17.52          157.0
    0.8161              -18.29          12.55           56.8          63.34          5.773          -11.4         -7.241          20.06         -58.41          17.55          156.9
    0.8394              -18.47          12.63          56.75          63.35          5.792         -11.39         -7.243          20.17         -57.95          17.58          156.8
    0.8627               -18.7          12.72          56.69          63.37          5.815         -11.37         -7.245           20.3         -57.39          17.61          156.7
     0.886              -18.98          12.83          56.61          63.38          5.843         -11.35         -7.247          20.46         -56.72          17.65          156.6
    0.9094              -19.31          12.96          56.52           63.4          5.876         -11.32         -7.249          20.65          -55.9           17.7          156.4
    0.9327              -19.73          13.12           56.4          63.43          5.918         -11.29         -7.252          20.88         -54.89          17.76          156.2
     0.956              -20.25          13.33          56.26          63.46          5.969         -11.26         -7.256          21.18         -53.63          17.84          156.0
    0.9793               -20.9          13.59          56.08           63.5          6.034         -11.21         -7.262          21.55         -52.04          17.94          155.7
     1.003              -21.72          13.92          55.85          63.55          6.117         -11.15         -7.268          22.02         -50.02          18.07          155.3
     1.026              -22.79          14.34          55.55          63.61          6.223         -11.07         -7.276          22.62         -47.44          18.23          154.8
     1.049              -24.15          14.88          55.18          63.69          6.359         -10.97         -7.287           23.4         -44.12          18.43          154.1
     1.073              -25.88          15.57          54.69           63.8          6.533         -10.85           -7.3          24.39         -39.88          18.69          153.3
     1.096              -28.07          16.44          54.09          63.93          6.751         -10.69         -7.317          25.63         -34.55          19.02          152.3
     1.119              -30.73           17.5          53.35          64.08          7.017          -10.5         -7.338          27.15         -28.06          19.42          151.0
     1.143              -33.82          18.73          52.49          64.27          7.326         -10.27         -7.362           28.9         -20.54          19.89          149.6
     1.166              -37.16          20.06          51.56          64.47           7.66         -10.03         -7.387          30.81         -12.39          20.39          148.0
     1.189               -40.5          21.39          50.63          64.67          7.994         -9.787         -7.413          32.71         -4.239           20.9          146.4
     1.212              -43.59          22.62          49.77          64.85          8.302         -9.563         -7.437          34.47          3.287          21.36          144.9
     1.236              -46.25          23.68          49.03          65.01          8.568          -9.37         -7.458          35.98           9.78          21.76          143.7
